<?xml version="1.0" encoding="UTF-8"?>
<svg id="Layer_2" data-name="Layer 2" xmlns="http://www.w3.org/2000/svg" viewBox="0 0 190.75 218.6">
  <defs>
    <style>
      .cls-1 {
        fill: none;
        stroke: #e07868;
        stroke-linecap: round;
        stroke-miterlimit: 16;
        stroke-width: 8px;
      }

      .cls-2 {
        fill: #e07868;
      }
    </style>
  </defs>
  <g id="Layer_1-2" data-name="Layer 1">
    <g>
      <path class="cls-2" d="M9.49,80.48c-5.67,0-10.05-4.14-9.44-8.87C5.32,31.33,45.99,0,95.37,0s90.05,31.33,95.32,71.6c.62,4.73-3.77,8.87-9.44,8.87H9.49Z"/>
      <path class="cls-1" d="M31.45,80.48c-7.99,46.94,7.99,80.48,0,134.13"/>
      <path class="cls-1" d="M59.41,80.48c-7.99,46.94,7.99,80.48,0,134.13"/>
      <path class="cls-1" d="M95.37,80.48c-7.99,46.94,7.99,80.48,0,134.13"/>
      <path class="cls-1" d="M131.33,80.48c-7.99,46.94,7.99,80.48,0,134.13"/>
      <path class="cls-1" d="M159.3,80.48c-7.99,46.94,7.99,80.48,0,134.13"/>
    </g>
  </g>
</svg>