<svg xmlns="http://www.w3.org/2000/svg" viewBox="0 0 48 62" fill="none" role="img" aria-label="Smack jellyfish mark">
  <!-- Bell -->
  <path d="M3 28 A21 24 0 0 0 45 28 C47 33 36 40 24 40 C12 40 1 33 3 28Z" fill="#e07868"/>
  <!-- Inner shine -->
  <path d="M10 22 Q24 10 38 22" stroke="rgba(255,255,255,0.22)" stroke-width="2.5" stroke-linecap="round"/>
  <!-- Tentacles -->
  <path d="M11 39 C13 49 9 54 11 62" stroke="#c85d4a" stroke-width="1.8" stroke-linecap="round"/>
  <path d="M18 40 C16 51 20 56 18 62" stroke="#c85d4a" stroke-width="1.8" stroke-linecap="round"/>
  <path d="M24 40 C26 51 22 56 24 62" stroke="#c85d4a" stroke-width="1.8" stroke-linecap="round"/>
  <path d="M30 40 C28 51 32 56 30 62" stroke="#c85d4a" stroke-width="1.8" stroke-linecap="round"/>
  <path d="M37 39 C39 49 35 54 37 62" stroke="#c85d4a" stroke-width="1.8" stroke-linecap="round"/>
</svg>
