<?xml version="1.0" encoding="UTF-8"?>
<svg id="Layer_2" data-name="Layer 2" xmlns="http://www.w3.org/2000/svg" viewBox="0 0 1477.58 458">
  <defs>
    <style>
      .cls-1 {
        fill: none;
        stroke: #e07868;
        stroke-linecap: round;
        stroke-miterlimit: 16;
        stroke-width: 8px;
      }

      .cls-2 {
        fill: #e07868;
      }

      .cls-3 {
        fill: #e07868;
        letter-spacing: 0em;
      }

      .cls-4 {
        font-family: Funtastic-Regular, Funtastic;
        font-size: 390.45px;
      }
    </style>
  </defs>
  <g id="Layer_1-2" data-name="Layer 1">
    <text class="cls-4" transform="translate(262.49 331.88)"><tspan x="0" y="0">smack</tspan><tspan class="cls-3" x="1132.7" y="0">.</tspan></text>
    <g>
      <path class="cls-2" d="M10.95,161.7c-6.54,0-11.6-5.43-10.88-11.63C6.14,97.29,53.04,56.22,110,56.22s103.86,41.07,109.93,93.85c.71,6.2-4.35,11.63-10.88,11.63H10.95Z"/>
      <path class="cls-1" d="M36.27,161.7c-9.22,61.53,9.22,105.48,0,175.8"/>
      <path class="cls-1" d="M68.53,161.7c-9.22,61.53,9.22,105.48,0,175.8"/>
      <path class="cls-1" d="M110,161.7c-9.22,61.53,9.22,105.48,0,175.8"/>
      <path class="cls-1" d="M151.47,161.7c-9.22,61.53,9.22,105.48,0,175.8"/>
      <path class="cls-1" d="M183.73,161.7c-9.22,61.53,9.22,105.48,0,175.8"/>
    </g>
  </g>
</svg>