<?xml version="1.0" encoding="UTF-8"?>
<svg id="Layer_2" data-name="Layer 2" xmlns="http://www.w3.org/2000/svg" viewBox="0 0 187.98 220.67">
  <defs>
    <style>
      .cls-1 {
        fill: none;
        stroke: #e07868;
        stroke-linecap: round;
        stroke-miterlimit: 16;
        stroke-width: 8px;
      }

      .cls-2 {
        fill: #e07868;
      }
    </style>
  </defs>
  <g id="Layer_1-2" data-name="Layer 1">
    <g>
      <path class="cls-2" d="M9.36,81.25c-5.59,0-9.91-4.18-9.3-8.96C5.24,31.63,45.32,0,93.99,0s88.75,31.63,93.93,72.29c.61,4.77-3.71,8.96-9.3,8.96H9.36Z"/>
      <path class="cls-1" d="M30.99,81.25c-7.88,47.4,7.88,81.25,0,135.42"/>
      <path class="cls-1" d="M58.55,81.25c-7.88,47.4,7.88,81.25,0,135.42"/>
      <path class="cls-1" d="M93.99,81.25c-7.88,47.4,7.88,81.25,0,135.42"/>
      <path class="cls-1" d="M129.43,81.25c-7.88,47.4,7.88,81.25,0,135.42"/>
      <path class="cls-1" d="M156.99,81.25c-7.88,47.4,7.88,81.25,0,135.42"/>
    </g>
  </g>
</svg>